<svg width="40" height="40" viewBox="0 0 40 40" fill="none" xmlns="http://www.w3.org/2000/svg">
<mask id="mask0_7_90" style="mask-type:alpha" maskUnits="userSpaceOnUse" x="0" y="0" width="40" height="40">
<rect width="40" height="40" fill="#D9D9D9"/>
</mask>
<g mask="url(#mask0_7_90)">
<path d="M9.09994 35C8.43577 35 7.86374 34.7601 7.38385 34.2802C6.90399 33.8003 6.66406 33.2283 6.66406 32.5641V13.9743C6.66406 13.3102 6.90399 12.7381 7.38385 12.2583C7.86374 11.7784 8.43577 11.5385 9.09994 11.5385H13.4589C13.4589 9.71724 14.0845 8.17218 15.3355 6.90329C16.5866 5.63443 18.1228 5 19.944 5C21.7801 5 23.3378 5.63229 24.617 6.89688C25.8962 8.16149 26.5359 9.70868 26.5359 11.5385H30.8949C31.559 11.5385 32.131 11.7784 32.6109 12.2583C33.0908 12.7381 33.3307 13.3102 33.3307 13.9743V32.5641C33.3307 33.2283 33.0908 33.8003 32.6109 34.2802C32.131 34.7601 31.559 35 30.8949 35H9.09994ZM9.09994 33.5898H30.8949C31.1513 33.5898 31.3863 33.4829 31.6 33.2693C31.8136 33.0556 31.9205 32.8205 31.9205 32.5641V13.9743C31.9205 13.7179 31.8136 13.4829 31.6 13.2692C31.3863 13.0555 31.1513 12.9487 30.8949 12.9487H9.09994C8.84352 12.9487 8.60848 13.0555 8.39481 13.2692C8.18115 13.4829 8.07431 13.7179 8.07431 13.9743V32.5641C8.07431 32.8205 8.18115 33.0556 8.39481 33.2693C8.60848 33.4829 8.84352 33.5898 9.09994 33.5898ZM14.8692 11.5385H25.1256C25.1256 10.114 24.627 8.90312 23.6299 7.90596C22.6327 6.90882 21.4219 6.41025 19.9974 6.41025C18.5729 6.41025 17.3621 6.90882 16.3649 7.90596C15.3678 8.90312 14.8692 10.114 14.8692 11.5385ZM19.9924 21.282C21.7049 21.282 23.2284 20.6745 24.5629 19.4594C25.8975 18.2443 26.5637 16.8579 26.5615 15.3002C26.5615 15.1243 26.4949 14.9751 26.3617 14.8525C26.2285 14.73 26.0584 14.6688 25.8514 14.6688C25.6796 14.6688 25.5255 14.7389 25.3891 14.8792C25.2526 15.0196 25.1712 15.1809 25.1449 15.3633C24.9718 16.6496 24.397 17.7226 23.4205 18.5823C22.444 19.4419 21.3055 19.8718 20.0049 19.8718C18.7043 19.8718 17.5652 19.4419 16.5877 18.5823C15.6101 17.7226 15.0358 16.6496 14.8649 15.3633C14.8386 15.193 14.7515 15.0347 14.6036 14.8883C14.4558 14.742 14.2997 14.6688 14.1352 14.6688C13.9482 14.6688 13.784 14.73 13.6424 14.8525C13.5009 14.9751 13.4301 15.1243 13.4301 15.3002C13.4301 16.8592 14.0957 18.2459 15.4269 19.4604C16.7581 20.6748 18.2799 21.282 19.9924 21.282Z" fill="#333333" fill-opacity="0.8"/>
</g>
</svg>
