<svg width="13" height="13" viewBox="0 0 13 13" fill="none" xmlns="http://www.w3.org/2000/svg">
<path d="M5.76 12.336V6.896H0.624V5.68H5.76V0.256H6.976V5.68H12.128V6.896H6.976V12.336H5.76ZM2.784 10.96C2.50667 10.96 2.28267 10.88 2.112 10.72C1.94133 10.5493 1.856 10.2987 1.856 9.968C1.856 9.616 1.94133 9.36533 2.112 9.216C2.28267 9.056 2.50667 8.976 2.784 8.976C3.06133 8.976 3.28 9.056 3.44 9.216C3.61067 9.36533 3.696 9.616 3.696 9.968C3.696 10.2987 3.61067 10.5493 3.44 10.72C3.28 10.88 3.06133 10.96 2.784 10.96ZM9.808 10.96C9.53067 10.96 9.30667 10.88 9.136 10.72C8.96533 10.5493 8.88 10.2987 8.88 9.968C8.88 9.616 8.96533 9.36533 9.136 9.216C9.30667 9.056 9.53067 8.976 9.808 8.976C10.0853 8.976 10.304 9.056 10.464 9.216C10.6347 9.36533 10.72 9.616 10.72 9.968C10.72 10.2987 10.6347 10.5493 10.464 10.72C10.304 10.88 10.0853 10.96 9.808 10.96ZM2.784 3.6C2.50667 3.6 2.28267 3.52 2.112 3.36C1.94133 3.2 1.856 2.94933 1.856 2.608C1.856 2.256 1.94133 2.00533 2.112 1.856C2.28267 1.696 2.50667 1.616 2.784 1.616C3.06133 1.616 3.28 1.696 3.44 1.856C3.61067 2.00533 3.696 2.256 3.696 2.608C3.696 2.94933 3.61067 3.2 3.44 3.36C3.28 3.52 3.06133 3.6 2.784 3.6ZM9.952 3.6C9.67467 3.6 9.45067 3.52 9.28 3.36C9.10933 3.2 9.024 2.94933 9.024 2.608C9.024 2.256 9.10933 2.00533 9.28 1.856C9.45067 1.696 9.67467 1.616 9.952 1.616C10.2293 1.616 10.448 1.696 10.608 1.856C10.7787 2.00533 10.864 2.256 10.864 2.608C10.864 2.94933 10.7787 3.2 10.608 3.36C10.448 3.52 10.2293 3.6 9.952 3.6Z" fill="#333333" fill-opacity="0.8"/>
</svg>
