<svg width="160" height="19" viewBox="0 0 160 19" fill="none" xmlns="http://www.w3.org/2000/svg">
<path d="M10.032 18H5.712V4.992H0.672V1.2H15.096V4.992H10.032V18ZM20.1028 18H15.5428L22.5988 1.104H26.7508L33.8068 18H29.1748L27.7588 14.448H21.5188L20.1028 18ZM24.6388 6.504L22.8868 10.992H26.3908L24.6388 6.504ZM43.6142 18H39.2942V4.992H34.2542V1.2H48.6782V4.992H43.6142V18ZM53.685 18H49.125L56.181 1.104H60.333L67.389 18H62.757L61.341 14.448H55.101L53.685 18ZM58.221 6.504L56.469 10.992H59.973L58.221 6.504ZM75.483 18H71.163V1.2H79.059C80.907 1.2 82.371 1.68 83.451 2.664C84.555 3.624 85.107 4.872 85.107 6.384C85.107 8.568 83.883 10.32 81.843 11.112L86.931 18H81.963L77.211 11.592H75.483V18ZM75.483 4.848V8.064H78.819C79.995 8.064 80.739 7.464 80.739 6.48C80.739 5.496 79.995 4.848 78.819 4.848H75.483ZM96.4954 18.336C93.9034 18.336 91.7434 17.736 89.9914 16.536V12.12C90.6874 12.768 91.6474 13.296 92.8714 13.752C94.0954 14.208 95.2474 14.424 96.3274 14.424C98.0314 14.424 98.8954 13.992 98.8954 13.104C98.8954 12.6 98.6314 12.384 98.2474 12.12C98.0554 11.952 97.4554 11.784 97.1674 11.688L95.6554 11.232L94.4314 10.872L93.3274 10.44C92.8474 10.248 92.4874 10.08 92.2234 9.912C91.7434 9.552 90.9514 8.976 90.5914 8.376C90.2794 7.776 89.9914 6.888 89.9914 5.904C89.9914 2.664 92.5594 0.863999 96.5914 0.863999C98.6314 0.863999 100.527 1.32 102.279 2.256V6.408C101.535 5.952 100.647 5.568 99.6154 5.256C98.5834 4.944 97.5994 4.776 96.6394 4.776C95.1754 4.776 94.4314 5.136 94.4314 5.88C94.4314 6.192 94.6234 6.432 95.1274 6.648L95.8954 6.912C96.3994 7.08 97.5034 7.368 98.1994 7.584C99.8074 8.112 101.079 8.784 101.991 9.576C102.903 10.368 103.359 11.496 103.359 12.936C103.359 14.592 102.711 15.888 101.439 16.872C100.167 17.856 98.5114 18.336 96.4954 18.336ZM115.7 18H111.38V4.992H106.34V1.2H120.764V4.992H115.7V18ZM125.771 18H121.211L128.267 1.104H132.419L139.475 18H134.843L133.427 14.448H127.187L125.771 18ZM130.307 6.504L128.555 10.992H132.059L130.307 6.504ZM147.569 18H143.249V1.2H151.145C152.993 1.2 154.457 1.68 155.537 2.664C156.641 3.624 157.193 4.872 157.193 6.384C157.193 8.568 155.969 10.32 153.929 11.112L159.017 18H154.049L149.297 11.592H147.569V18ZM147.569 4.848V8.064H150.905C152.081 8.064 152.825 7.464 152.825 6.48C152.825 5.496 152.081 4.848 150.905 4.848H147.569Z" fill="white"/>
</svg>
