<svg width="129" height="61" viewBox="0 0 129 61" fill="none" xmlns="http://www.w3.org/2000/svg">
<rect width="129" height="61" rx="2" fill="#FF0000"/>
<path d="M23.472 27.824H40.88V33.424H23.472V27.824ZM41.488 18V23.6H23.696L26.864 20.432V42H20.24V18H41.488ZM65.4395 27.6V32.4H47.8715V27.6H65.4395ZM52.3835 30L50.8155 39.632L48.1275 36.624H66.4955V42H44.1915L46.0155 30L44.1915 18H66.3355V23.376H48.1275L50.8155 20.368L52.3835 30ZM100.257 39.184H98.1768L104.161 18H111.169L103.873 42H95.3288L88.3848 21.52H91.1048L84.1287 42H75.6168L68.2888 18H75.3288L81.3128 39.184L79.2648 39.152L86.2408 18H93.2488L100.257 39.184Z" fill="white"/>
</svg>
